<?xml version="1.0" encoding="UTF-8"?>
<!DOCTYPE svg>
<svg xmlns="http://www.w3.org/2000/svg"
     version="1.1"
     width="64"
     height="64"
     viewBox="0 0 512 512"
>
  <g><path fill="black" d="M 132.5,-0.5 C 214.5,-0.5 296.5,-0.5 378.5,-0.5C 408.441,-1.46523 436.108,6.03477 461.5,22C 494.485,47.5396 510.651,81.3729 510,123.5C 510.962,216.18 510.629,308.847 509,401.5C 504.173,451.015 478.673,484.849 432.5,503C 417.498,507.445 402.164,509.778 386.5,510C 299.167,510.667 211.833,510.667 124.5,510C 92.4846,510.593 64.1512,500.927 39.5,481C 18.1441,461.123 5.64411,436.623 2,407.5C 1.07258,396.019 0.239246,384.686 -0.5,373.5C -0.5,294.5 -0.5,215.5 -0.5,136.5C -0.458474,117.318 2.04153,98.3181 7,79.5C 18.2203,47.2122 39.387,24.0455 70.5,10C 90.7346,3.12788 111.401,-0.372117 132.5,-0.5 Z"/></g>
  <g><path fill="white" d="M 112.5,15.5 C 207.167,15.3333 301.834,15.5 396.5,16C 453.15,21.9833 485.65,53.1499 494,109.5C 494.5,142.498 494.667,175.498 494.5,208.5C 478.427,208.965 462.427,208.132 446.5,206C 437.095,204.198 428.095,201.198 419.5,197C 409.558,190.724 399.892,184.057 390.5,177C 367.554,155.378 342.887,136.044 316.5,119C 295.399,106.299 272.566,99.4657 248,98.5C 234.628,98.5097 221.961,101.51 210,107.5C 203.359,98.1855 196.693,88.8522 190,79.5C 183.14,70.1282 173.974,64.7948 162.5,63.5C 153.117,64.1105 145.95,68.4438 141,76.5C 134.02,91.4082 129.353,107.075 127,123.5C 122.71,149.24 118.21,174.906 113.5,200.5C 99.1235,204.439 84.4568,206.606 69.5,207C 51.5031,207.5 33.5031,207.667 15.5,207.5C 15.3334,175.832 15.5,144.165 16,112.5C 23.011,54.9893 55.1777,22.6559 112.5,15.5 Z"/></g>
  <g><path fill="white" d="M 440.5,403.5 C 458.024,403.838 475.357,404.838 492.5,406.5C 491.833,411.167 491.167,415.833 490.5,420.5C 473.497,420.667 456.497,420.5 439.5,420C 419.274,420.193 400.274,415.527 382.5,406C 369.169,395.669 358.336,383.169 350,368.5C 340.585,352.002 330.919,335.668 321,319.5C 299.284,292.119 277.951,264.452 257,236.5C 248.939,224.768 241.272,212.768 234,200.5C 215.66,164.534 195.327,129.867 173,96.5C 169.985,93.3172 166.818,90.3172 163.5,87.5C 160.665,89.8282 158.831,92.8282 158,96.5C 155.922,102.732 154.255,109.066 153,115.5C 146.217,155.533 139.217,195.533 132,235.5C 126.501,260.666 117.834,284.666 106,307.5C 85.4894,341.185 55.3227,358.518 15.5,359.5C 15.5,354.167 15.5,348.833 15.5,343.5C 52.6849,342.424 79.5182,325.424 96,292.5C 105.304,272.292 112.304,251.292 117,229.5C 122.54,199.927 127.54,170.26 132,140.5C 134.26,126.011 137.26,111.678 141,97.5C 143.127,89.0777 146.961,81.5777 152.5,75C 160.877,69.9696 168.877,70.6363 176.5,77C 183.091,83.5865 188.924,90.7532 194,98.5C 216.919,137.336 239.586,176.336 262,215.5C 284.848,248.018 308.848,279.685 334,310.5C 345.252,328.668 356.252,347.001 367,365.5C 372.762,374.499 379.595,382.666 387.5,390C 403.676,399.961 421.343,404.461 440.5,403.5 Z"/></g>
  <g><path fill="white" d="M 238.5,112.5 C 262.414,111.562 284.747,117.062 305.5,129C 317.016,135.589 328.016,142.922 338.5,151C 355.833,165.667 373.167,180.333 390.5,195C 399.533,201.182 408.866,206.849 418.5,212C 408.89,213.472 400.224,217.139 392.5,223C 370.421,243.083 347.755,262.416 324.5,281C 323.5,281.667 322.5,281.667 321.5,281C 302.239,257.639 284.072,233.472 267,208.5C 250.161,180.159 233.827,151.492 218,122.5C 217.251,121.365 217.417,120.365 218.5,119.5C 225.002,116.335 231.668,114.001 238.5,112.5 Z"/></g>
  <g><path fill="white" d="M 182.5,127.5 C 186.554,130.942 189.054,135.276 190,140.5C 178.779,153.057 169.112,166.723 161,181.5C 157.375,187.06 153.042,192.06 148,196.5C 148.351,187.388 149.685,178.388 152,169.5C 160.45,154.222 170.617,140.222 182.5,127.5 Z"/></g>
  <g><path fill="white" d="M 105.5,216.5 C 107.604,216.201 109.604,216.534 111.5,217.5C 110.446,223.602 108.946,229.602 107,235.5C 98.1876,228.677 88.3543,223.844 77.5,221C 87.0347,219.945 96.368,218.445 105.5,216.5 Z"/></g>
  <g><path fill="white" d="M 432.5,223.5 C 453.167,223.5 473.833,223.5 494.5,223.5C 494.667,280.834 494.5,338.168 494,395.5C 467.142,397.228 440.308,396.395 413.5,393C 398.224,389.28 386.391,380.78 378,367.5C 368.081,351.332 358.415,334.998 349,318.5C 343.361,310.028 337.528,301.695 331.5,293.5C 355.543,274.634 378.876,254.8 401.5,234C 410.924,227.567 421.258,224.067 432.5,223.5 Z"/></g>
  <g><path fill="black" d="M 23.5,227.5 C 20.8333,227.5 18.1667,227.5 15.5,227.5C 15.5,251.833 15.5,276.167 15.5,300.5C 15.1667,300.5 14.8333,300.5 14.5,300.5C 14.5,275.833 14.5,251.167 14.5,226.5C 17.7131,226.19 20.7131,226.523 23.5,227.5 Z"/></g>
  <g><path fill="white" d="M 23.5,227.5 C 47.5711,227.414 70.5711,232.247 92.5,242C 94.8333,243.667 97.1667,245.333 99.5,247C 101.357,248.182 102.357,249.849 102.5,252C 96.905,278.201 84.5717,300.535 65.5,319C 51.6869,328.74 36.3536,334.24 19.5,335.5C 18.1667,335.5 16.8333,335.5 15.5,335.5C 15.5,323.833 15.5,312.167 15.5,300.5C 15.5,276.167 15.5,251.833 15.5,227.5C 18.1667,227.5 20.8333,227.5 23.5,227.5 Z"/></g>
  <g><path fill="white" d="M 130.5,270.5 C 133.137,273.989 135.637,277.655 138,281.5C 142.067,287.145 144.734,286.478 146,279.5C 154.525,269.561 164.692,267.728 176.5,274C 182.844,277.504 188.844,281.504 194.5,286C 202.529,295.834 212.195,303.5 223.5,309C 238.455,313.544 253.455,313.544 268.5,309C 277.232,306.423 285.732,303.256 294,299.5C 297.494,302.615 300.661,306.115 303.5,310C 281.346,322.165 257.68,327.498 232.5,326C 223.229,324.243 214.562,320.91 206.5,316C 198.833,309 191.167,302 183.5,295C 178.327,290.91 172.66,287.577 166.5,285C 164.167,284.333 161.833,284.333 159.5,285C 157.46,288.914 155.293,292.748 153,296.5C 147.209,301.18 141.042,301.68 134.5,298C 130.064,294.751 127.064,290.585 125.5,285.5C 126.971,280.42 128.638,275.42 130.5,270.5 Z"/></g>
  <g><path fill="black" d="M 14.5,300.5 C 14.8333,300.5 15.1667,300.5 15.5,300.5C 15.5,312.167 15.5,323.833 15.5,335.5C 16.8333,335.5 18.1667,335.5 19.5,335.5C 18.0813,336.451 16.4147,336.784 14.5,336.5C 14.5,324.5 14.5,312.5 14.5,300.5 Z"/></g>
  <g><path fill="black" d="M 440.5,403.5 C 458.167,403.5 475.833,403.5 493.5,403.5C 493.737,404.791 493.404,405.791 492.5,406.5C 475.357,404.838 458.024,403.838 440.5,403.5 Z"/></g>
</svg>
